<mxfile host="app.diagrams.net" modified="2024-06-19T07:08:37.797Z" agent="Mozilla/5.0 (Windows NT 10.0; Win64; x64) AppleWebKit/537.36 (KHTML, like Gecko) Chrome/123.0.0.0 Safari/537.36 OPR/109.0.0.0" etag="-dofKTyr3DHs8YugmGu5" version="24.5.5" type="device">
  <diagram name="Página-1" id="bxtANWBePFYG9ldre4Y_">
    <mxGraphModel dx="1393" dy="766" grid="1" gridSize="10" guides="1" tooltips="1" connect="1" arrows="1" fold="1" page="1" pageScale="1" pageWidth="827" pageHeight="1169" math="0" shadow="0">
      <root>
        <mxCell id="0" />
        <mxCell id="1" parent="0" />
        <mxCell id="EbjDFUz-OWnhSn3aXGN4-6" style="edgeStyle=orthogonalEdgeStyle;rounded=0;orthogonalLoop=1;jettySize=auto;html=1;exitX=0.5;exitY=1;exitDx=0;exitDy=0;entryX=0.5;entryY=0;entryDx=0;entryDy=0;" edge="1" parent="1" source="EbjDFUz-OWnhSn3aXGN4-5" target="EbjDFUz-OWnhSn3aXGN4-7">
          <mxGeometry relative="1" as="geometry">
            <mxPoint x="440" y="160" as="targetPoint" />
          </mxGeometry>
        </mxCell>
        <mxCell id="EbjDFUz-OWnhSn3aXGN4-5" value="INICIO" style="ellipse;whiteSpace=wrap;html=1;" vertex="1" parent="1">
          <mxGeometry x="360" y="30" width="160" height="80" as="geometry" />
        </mxCell>
        <mxCell id="EbjDFUz-OWnhSn3aXGN4-8" style="edgeStyle=none;rounded=0;orthogonalLoop=1;jettySize=auto;html=1;entryX=0.5;entryY=0;entryDx=0;entryDy=0;" edge="1" parent="1" target="EbjDFUz-OWnhSn3aXGN4-9">
          <mxGeometry relative="1" as="geometry">
            <mxPoint x="440" y="250" as="targetPoint" />
            <mxPoint x="440" y="210" as="sourcePoint" />
          </mxGeometry>
        </mxCell>
        <mxCell id="EbjDFUz-OWnhSn3aXGN4-7" value="Mostrar mensaje: &quot;Ingrese el monto en dólares a convertir a bolivianos:&quot;" style="whiteSpace=wrap;html=1;" vertex="1" parent="1">
          <mxGeometry x="360" y="150" width="160" height="60" as="geometry" />
        </mxCell>
        <mxCell id="EbjDFUz-OWnhSn3aXGN4-11" style="edgeStyle=none;rounded=0;orthogonalLoop=1;jettySize=auto;html=1;entryX=0.5;entryY=0;entryDx=0;entryDy=0;" edge="1" parent="1" source="EbjDFUz-OWnhSn3aXGN4-9" target="EbjDFUz-OWnhSn3aXGN4-10">
          <mxGeometry relative="1" as="geometry" />
        </mxCell>
        <mxCell id="EbjDFUz-OWnhSn3aXGN4-9" value="&#xa;Leer input del usuario en la variable dollars&#xa;&#xa;" style="whiteSpace=wrap;html=1;" vertex="1" parent="1">
          <mxGeometry x="360" y="250" width="160" height="70" as="geometry" />
        </mxCell>
        <mxCell id="EbjDFUz-OWnhSn3aXGN4-14" style="edgeStyle=none;rounded=0;orthogonalLoop=1;jettySize=auto;html=1;exitX=0.75;exitY=1;exitDx=0;exitDy=0;entryX=0.353;entryY=-0.023;entryDx=0;entryDy=0;entryPerimeter=0;" edge="1" parent="1" source="EbjDFUz-OWnhSn3aXGN4-10" target="EbjDFUz-OWnhSn3aXGN4-16">
          <mxGeometry relative="1" as="geometry">
            <mxPoint x="480" y="490" as="targetPoint" />
          </mxGeometry>
        </mxCell>
        <mxCell id="EbjDFUz-OWnhSn3aXGN4-17" style="edgeStyle=none;rounded=0;orthogonalLoop=1;jettySize=auto;html=1;exitX=0.213;exitY=1.06;exitDx=0;exitDy=0;entryX=0.5;entryY=0;entryDx=0;entryDy=0;exitPerimeter=0;" edge="1" parent="1" source="EbjDFUz-OWnhSn3aXGN4-10" target="EbjDFUz-OWnhSn3aXGN4-18">
          <mxGeometry relative="1" as="geometry">
            <mxPoint x="365" y="480" as="targetPoint" />
          </mxGeometry>
        </mxCell>
        <mxCell id="EbjDFUz-OWnhSn3aXGN4-10" value="¿dollars &amp;lt; 0?" style="whiteSpace=wrap;html=1;" vertex="1" parent="1">
          <mxGeometry x="365" y="360" width="150" height="50" as="geometry" />
        </mxCell>
        <mxCell id="EbjDFUz-OWnhSn3aXGN4-13" style="edgeStyle=none;rounded=0;orthogonalLoop=1;jettySize=auto;html=1;entryX=1;entryY=0.5;entryDx=0;entryDy=0;" edge="1" parent="1" source="EbjDFUz-OWnhSn3aXGN4-10" target="EbjDFUz-OWnhSn3aXGN4-10">
          <mxGeometry relative="1" as="geometry" />
        </mxCell>
        <mxCell id="EbjDFUz-OWnhSn3aXGN4-15" value="NO&lt;div&gt;&lt;br&gt;&lt;/div&gt;" style="text;html=1;align=center;verticalAlign=middle;resizable=0;points=[];autosize=1;strokeColor=none;fillColor=none;" vertex="1" parent="1">
          <mxGeometry x="510" y="430" width="40" height="40" as="geometry" />
        </mxCell>
        <mxCell id="EbjDFUz-OWnhSn3aXGN4-23" style="edgeStyle=none;rounded=0;orthogonalLoop=1;jettySize=auto;html=1;exitX=0.5;exitY=1;exitDx=0;exitDy=0;entryX=0.5;entryY=0;entryDx=0;entryDy=0;" edge="1" parent="1" source="EbjDFUz-OWnhSn3aXGN4-16" target="EbjDFUz-OWnhSn3aXGN4-24">
          <mxGeometry relative="1" as="geometry">
            <mxPoint x="575" y="640" as="targetPoint" />
          </mxGeometry>
        </mxCell>
        <mxCell id="EbjDFUz-OWnhSn3aXGN4-16" value="Calcular bolivianos = dollars * 7.0&lt;div&gt;&lt;br/&gt;&lt;/div&gt;" style="whiteSpace=wrap;html=1;" vertex="1" parent="1">
          <mxGeometry x="510" y="505" width="130" height="70" as="geometry" />
        </mxCell>
        <mxCell id="EbjDFUz-OWnhSn3aXGN4-20" style="edgeStyle=none;rounded=0;orthogonalLoop=1;jettySize=auto;html=1;exitX=0.5;exitY=1;exitDx=0;exitDy=0;entryX=0.5;entryY=0;entryDx=0;entryDy=0;" edge="1" parent="1" source="EbjDFUz-OWnhSn3aXGN4-18" target="EbjDFUz-OWnhSn3aXGN4-21">
          <mxGeometry relative="1" as="geometry">
            <mxPoint x="398" y="640" as="targetPoint" />
          </mxGeometry>
        </mxCell>
        <mxCell id="EbjDFUz-OWnhSn3aXGN4-18" value="El monto ingresado no es válido&amp;nbsp;&lt;div&gt;&lt;br&gt;&lt;/div&gt;&lt;div&gt;&lt;br&gt;&lt;/div&gt;" style="whiteSpace=wrap;html=1;" vertex="1" parent="1">
          <mxGeometry x="335" y="505" width="125" height="75" as="geometry" />
        </mxCell>
        <mxCell id="EbjDFUz-OWnhSn3aXGN4-19" value="SI" style="text;html=1;align=center;verticalAlign=middle;resizable=0;points=[];autosize=1;strokeColor=none;fillColor=none;" vertex="1" parent="1">
          <mxGeometry x="335" y="430" width="30" height="30" as="geometry" />
        </mxCell>
        <mxCell id="EbjDFUz-OWnhSn3aXGN4-27" style="edgeStyle=none;rounded=0;orthogonalLoop=1;jettySize=auto;html=1;exitX=0.5;exitY=1;exitDx=0;exitDy=0;entryX=0.5;entryY=0;entryDx=0;entryDy=0;" edge="1" parent="1" source="EbjDFUz-OWnhSn3aXGN4-21" target="EbjDFUz-OWnhSn3aXGN4-25">
          <mxGeometry relative="1" as="geometry" />
        </mxCell>
        <mxCell id="EbjDFUz-OWnhSn3aXGN4-21" value="Debe ser un número positivo" style="whiteSpace=wrap;html=1;" vertex="1" parent="1">
          <mxGeometry x="337.5" y="640" width="120" height="60" as="geometry" />
        </mxCell>
        <mxCell id="EbjDFUz-OWnhSn3aXGN4-22" style="edgeStyle=none;rounded=0;orthogonalLoop=1;jettySize=auto;html=1;exitX=0.75;exitY=1;exitDx=0;exitDy=0;" edge="1" parent="1" source="EbjDFUz-OWnhSn3aXGN4-21" target="EbjDFUz-OWnhSn3aXGN4-21">
          <mxGeometry relative="1" as="geometry" />
        </mxCell>
        <mxCell id="EbjDFUz-OWnhSn3aXGN4-26" style="edgeStyle=none;rounded=0;orthogonalLoop=1;jettySize=auto;html=1;exitX=0.5;exitY=1;exitDx=0;exitDy=0;entryX=1;entryY=0.5;entryDx=0;entryDy=0;" edge="1" parent="1" source="EbjDFUz-OWnhSn3aXGN4-24" target="EbjDFUz-OWnhSn3aXGN4-25">
          <mxGeometry relative="1" as="geometry" />
        </mxCell>
        <mxCell id="EbjDFUz-OWnhSn3aXGN4-24" value="dólares son aproximadamente bolivianos bolivianos" style="whiteSpace=wrap;html=1;" vertex="1" parent="1">
          <mxGeometry x="515" y="640" width="120" height="60" as="geometry" />
        </mxCell>
        <mxCell id="EbjDFUz-OWnhSn3aXGN4-25" value="FIN DEL PROGRAMA" style="whiteSpace=wrap;html=1;" vertex="1" parent="1">
          <mxGeometry x="380" y="780" width="140" height="60" as="geometry" />
        </mxCell>
      </root>
    </mxGraphModel>
  </diagram>
</mxfile>
